<?xml version="1.0" standalone="no"?>
<!DOCTYPE svg PUBLIC "-//W3C//DTD SVG 20010904//EN"
 "http://www.w3.org/TR/2001/REC-SVG-20010904/DTD/svg10.dtd">
<svg version="1.0" xmlns="http://www.w3.org/2000/svg"
 width="512.000000pt" height="512.000000pt" viewBox="0 0 512.000000 512.000000"
 preserveAspectRatio="xMidYMid meet">

<g transform="translate(0.000000,512.000000) scale(0.100000,-0.100000)"
fill="#000000" stroke="none">
<path d="M2115 4721 c-3 -5 -1 -12 4 -15 5 -3 11 1 15 9 6 16 -9 21 -19 6z"/>
<path d="M2150 4721 c0 -4 11 -6 25 -3 14 2 25 6 25 8 0 2 -11 4 -25 4 -14 0
-25 -4 -25 -9z"/>
<path d="M2382 4713 c37 -2 100 -2 140 0 40 1 10 3 -67 3 -77 0 -110 -1 -73
-3z"/>
<path d="M2710 4699 c41 -5 95 -10 120 -12 41 -4 41 -3 5 2 -28 4 -8 7 70 11
90 5 76 6 -80 6 -149 1 -174 -1 -115 -7z"/>
<path d="M3084 4691 c47 -6 49 -7 33 -23 -10 -10 -17 -20 -17 -23 3 -15 -65
-135 -77 -135 -7 0 -13 -5 -13 -10 0 -26 37 13 65 66 17 32 40 75 53 96 l22
38 -57 -2 -58 -1 49 -6z"/>
<path d="M2338 4543 c12 -2 32 -2 45 0 12 2 2 4 -23 4 -25 0 -35 -2 -22 -4z"/>
<path d="M2268 4513 c23 -2 61 -2 85 0 23 2 4 4 -43 4 -47 0 -66 -2 -42 -4z"/>
<path d="M2553 4503 c26 -2 68 -2 95 0 26 2 4 3 -48 3 -52 0 -74 -1 -47 -3z"/>
<path d="M2702 4460 c-7 -11 -8 -20 -3 -20 9 0 24 30 18 36 -1 2 -8 -6 -15
-16z"/>
<path d="M3001 4454 c-16 -37 -9 -39 11 -3 9 16 14 29 9 29 -4 0 -13 -12 -20
-26z"/>
<path d="M2640 4348 c-24 -46 -36 -77 -28 -71 8 7 19 9 23 5 5 -4 5 -1 1 6 -9
15 43 124 55 116 5 -3 6 2 3 10 -3 9 -7 16 -9 16 -1 0 -21 -37 -45 -82z"/>
<path d="M2966 4396 c-3 -14 -12 -31 -19 -38 -6 -7 -17 -29 -24 -48 -11 -31
-11 -33 2 -16 8 11 15 24 15 28 0 5 11 26 25 48 13 21 21 41 16 44 -5 3 -12
-5 -15 -18z"/>
<path d="M3190 4361 c-6 -12 -7 -21 -1 -21 10 0 24 30 17 37 -2 3 -9 -5 -16
-16z"/>
<path d="M3231 4310 c10 -21 19 -45 19 -53 0 -7 6 -14 13 -14 10 0 6 16 -12
53 -14 30 -29 54 -33 54 -3 0 2 -18 13 -40z"/>
<path d="M3196 4322 c-2 -4 -1 -14 4 -22 7 -11 9 -9 7 8 -1 24 -3 26 -11 14z"/>
<path d="M3136 4265 c-9 -26 -7 -32 5 -12 6 10 9 21 6 23 -2 3 -7 -2 -11 -11z"/>
<path d="M2887 4251 c-3 -13 -10 -20 -15 -17 -6 4 -8 -3 -4 -16 3 -13 1 -19
-5 -15 -9 6 -27 -43 -19 -51 6 -6 57 100 54 110 -3 7 -7 2 -11 -11z"/>
<path d="M3167 4257 c-3 -8 1 -14 8 -14 7 0 11 6 8 14 -3 7 -6 13 -8 13 -2 0
-5 -6 -8 -13z"/>
<path d="M2508 4253 c18 -2 45 -2 60 0 15 2 0 4 -33 4 -33 0 -45 -2 -27 -4z"/>
<path d="M3280 4210 c0 -5 5 -10 11 -10 5 0 7 5 4 10 -3 6 -8 10 -11 10 -2 0
-4 -4 -4 -10z"/>
<path d="M3086 4173 c-6 -14 -5 -15 5 -6 7 7 10 15 7 18 -3 3 -9 -2 -12 -12z"/>
<path d="M3304 4176 c4 -10 1 -25 -5 -32 -7 -9 -8 -14 -1 -14 16 0 23 30 11
48 -9 15 -10 15 -5 -2z"/>
<path d="M3043 4095 c-16 -33 -19 -46 -10 -51 7 -4 9 -4 5 1 -9 9 10 47 20 41
4 -2 8 9 9 25 1 16 1 29 0 29 -1 -1 -12 -21 -24 -45z"/>
<path d="M2801 4094 c-17 -38 -6 -41 12 -5 9 17 12 31 8 31 -4 0 -13 -12 -20
-26z"/>
<path d="M3255 4069 c-4 -6 -5 -12 -2 -15 2 -3 7 2 10 11 7 17 1 20 -8 4z"/>
<path d="M3000 4019 c-7 -11 -10 -23 -7 -25 2 -2 9 7 15 21 14 30 7 33 -8 4z"/>
<path d="M3212 3993 c-10 -34 -10 -36 3 -19 13 17 21 56 12 56 -2 0 -9 -17
-15 -37z"/>
<path d="M3098 3983 c7 -3 16 -2 19 1 4 3 -2 6 -13 5 -11 0 -14 -3 -6 -6z"/>
<path d="M2886 2054 c-25 -26 -46 -53 -46 -59 0 -17 79 -105 94 -105 7 0 32
22 55 50 48 57 47 61 -17 124 l-40 38 -46 -48z"/>
<path d="M1255 2049 c-49 -44 -65 -79 -72 -160 l-6 -69 -32 0 c-36 0 -45 -13
-45 -64 0 -39 15 -56 52 -56 l28 0 2 -197 3 -198 70 0 70 0 3 198 2 197 45 0
c62 0 70 18 55 118 0 1 -22 2 -50 2 l-50 0 0 46 c0 54 14 84 40 84 23 0 80 47
80 65 0 8 -12 26 -27 40 -22 20 -38 25 -80 25 -44 0 -58 -5 -88 -31z"/>
<path d="M1625 2060 c-47 -30 -77 -92 -83 -171 l-5 -68 -36 -3 c-35 -3 -36 -4
-39 -46 -4 -52 10 -72 49 -72 l29 0 2 -197 3 -198 70 0 70 0 3 198 2 197 46 0
c48 0 63 17 58 64 -1 11 -3 29 -3 39 -1 14 -10 17 -51 17 l-50 0 0 53 c0 55
12 77 41 77 21 0 79 47 79 64 0 7 -13 24 -28 39 -36 34 -110 37 -157 7z"/>
<path d="M673 2006 l-28 -24 -3 -289 c-3 -315 2 -357 48 -380 30 -15 292 -18
319 -3 10 5 26 21 35 36 17 25 17 27 -10 55 -26 28 -32 29 -114 29 -118 0
-130 9 -130 101 l0 69 88 0 c88 0 88 0 123 36 l34 35 -37 35 c-37 33 -40 34
-123 34 l-85 0 0 63 c0 89 4 91 109 95 81 4 93 7 116 29 32 32 31 40 -2 75
l-27 28 -142 0 c-137 0 -144 -1 -171 -24z"/>
<path d="M4302 1957 c-28 -28 -32 -40 -32 -84 l0 -52 -37 -3 c-37 -3 -38 -4
-41 -46 -4 -52 10 -72 49 -72 l29 0 0 -147 c0 -176 15 -223 74 -248 42 -18
120 -19 165 -4 28 10 32 15 28 38 -12 60 -26 83 -47 76 -60 -19 -80 25 -80
176 l0 108 53 3 52 3 3 57 3 57 -53 3 -53 3 -3 50 c-3 40 -9 56 -35 83 -17 17
-34 32 -37 32 -3 0 -20 -15 -38 -33z"/>
<path d="M2033 1830 c-118 -17 -192 -120 -193 -268 0 -92 17 -145 61 -196 46
-52 106 -76 191 -76 125 0 198 38 198 104 0 30 -4 36 -34 46 -29 9 -39 8 -68
-10 -37 -22 -112 -27 -152 -9 -21 10 -56 62 -56 83 0 3 50 6 110 6 166 0 200
21 200 124 0 54 -35 122 -81 158 -40 32 -110 47 -176 38z m99 -128 c15 -16 22
-40 19 -69 -1 -9 -25 -13 -87 -13 -84 0 -85 0 -79 23 24 80 97 109 147 59z"/>
<path d="M3692 1807 l-32 -33 0 -237 0 -237 70 0 70 0 0 174 c0 160 2 175 21
200 17 21 29 26 64 26 72 0 79 -19 85 -225 l5 -170 65 0 65 0 3 195 c2 186 1
197 -20 240 -13 25 -39 55 -58 68 -48 32 -153 28 -201 -7 l-31 -23 -32 31
c-18 17 -34 31 -37 31 -3 0 -19 -15 -37 -33z"/>
<path d="M3234 1811 c-83 -38 -124 -124 -124 -260 0 -76 4 -95 28 -142 39 -77
96 -111 200 -117 131 -7 212 29 215 98 2 29 -3 36 -27 48 -26 13 -33 12 -72
-7 -52 -26 -122 -29 -156 -7 -23 15 -48 55 -48 76 0 6 47 10 110 10 141 0 174
12 190 69 16 62 -4 143 -49 195 -50 56 -183 75 -267 37z m169 -113 c9 -11 17
-33 17 -49 l0 -29 -85 0 c-55 0 -85 4 -85 11 0 24 32 77 53 87 30 15 78 5 100
-20z"/>
<path d="M2362 1790 l-22 -28 26 -31 c24 -29 29 -30 115 -33 l89 -3 -53 -75
c-172 -243 -185 -270 -151 -305 14 -13 42 -15 196 -13 l181 3 20 28 21 27 -21
28 c-19 26 -24 27 -122 30 l-101 3 110 161 c115 168 130 207 91 228 -12 6 -90
10 -188 9 l-168 0 -23 -29z"/>
<path d="M2862 1563 l3 -258 64 -3 c44 -2 67 1 72 10 9 15 12 468 3 491 -5 14
-20 17 -75 17 l-69 0 2 -257z"/>
<path d="M1990 765 c0 -130 4 -205 10 -205 6 0 10 29 10 68 l1 67 63 -67 c42
-46 70 -68 85 -68 20 0 15 9 -38 67 l-62 67 43 45 c24 25 46 47 51 49 14 7 7
22 -12 22 -10 0 -41 -25 -69 -55 -27 -29 -52 -51 -56 -48 -3 4 -6 64 -6 135 0
79 -4 128 -10 128 -6 0 -10 -75 -10 -205z"/>
<path d="M3060 765 c0 -176 2 -205 15 -205 12 0 15 16 15 80 0 93 17 136 57
146 57 15 83 -30 83 -143 0 -68 3 -83 16 -83 12 0 15 14 13 89 -1 48 -8 102
-15 120 -23 55 -89 66 -134 21 -20 -20 -20 -20 -20 80 0 82 -3 100 -15 100
-13 0 -15 -29 -15 -205z"/>
<path d="M2644 926 c-7 -19 3 -36 22 -36 10 0 14 8 12 22 -4 26 -26 36 -34 14z"/>
<path d="M2780 845 c0 -31 -3 -35 -25 -35 -16 0 -25 -6 -25 -15 0 -9 9 -15 25
-15 25 0 25 0 25 -98 0 -83 3 -102 18 -115 21 -19 49 -22 72 -7 19 12 6 24
-28 25 l-27 0 -3 98 -3 97 31 0 c20 0 30 5 30 15 0 10 -10 15 -30 15 -28 0
-30 3 -30 35 0 24 -5 35 -15 35 -10 0 -15 -11 -15 -35z"/>
<path d="M955 810 c-54 -22 -87 -99 -71 -164 10 -41 54 -85 92 -92 52 -10 126
28 109 55 -3 6 -18 3 -38 -9 -18 -11 -42 -20 -54 -20 -29 0 -71 38 -79 73 l-6
27 96 0 c95 0 96 0 96 24 0 42 -18 75 -52 96 -35 21 -60 24 -93 10z m90 -45
c14 -13 25 -33 25 -45 0 -18 -6 -20 -80 -20 -92 0 -101 11 -51 61 36 36 73 37
106 4z"/>
<path d="M1373 808 c-13 -6 -23 -15 -23 -20 0 -4 -4 -8 -10 -8 -5 0 -10 7 -10
15 0 8 -7 15 -15 15 -13 0 -15 -21 -15 -125 0 -100 3 -125 14 -125 11 0 15 21
18 89 3 78 6 93 27 115 14 14 35 26 47 26 40 0 54 -35 54 -137 0 -73 3 -93 14
-93 11 0 15 22 18 96 3 86 5 98 27 115 28 23 50 24 77 5 16 -12 20 -29 22
-115 3 -82 7 -101 19 -101 12 0 14 17 11 106 -3 102 -4 107 -31 130 -36 30
-68 30 -104 0 l-29 -24 -23 24 c-25 26 -52 29 -88 12z"/>
<path d="M1763 806 c-18 -8 -33 -19 -33 -24 0 -18 14 -21 41 -7 52 28 92 13
105 -37 6 -28 5 -28 -40 -28 -52 0 -100 -20 -110 -45 -19 -52 2 -99 50 -111
26 -7 84 12 84 27 0 5 5 9 10 9 6 0 10 -7 10 -15 0 -8 7 -15 16 -15 25 0 13
206 -13 232 -26 25 -81 31 -120 14z m110 -156 c-2 -56 -55 -86 -104 -60 -20
11 -25 45 -10 68 9 15 64 31 96 29 16 -2 20 -9 18 -37z"/>
<path d="M2279 806 c-83 -47 -88 -181 -9 -234 42 -28 101 -25 133 6 29 29 12
47 -20 22 -31 -24 -65 -26 -98 -4 -24 15 -49 67 -38 78 4 3 48 6 100 6 103 0
105 2 79 63 -27 64 -94 93 -147 63z m98 -38 c13 -12 23 -32 23 -45 0 -22 -3
-23 -75 -23 -69 0 -75 2 -75 20 0 28 47 70 78 70 14 0 36 -10 49 -22z"/>
<path d="M3373 806 c-32 -14 -40 -26 -27 -38 3 -4 17 0 32 8 51 26 95 9 104
-41 3 -17 -4 -21 -47 -26 -66 -8 -83 -16 -101 -50 -21 -42 2 -94 46 -104 32
-7 90 10 90 26 0 5 5 9 10 9 6 0 10 -7 10 -15 0 -8 7 -15 15 -15 11 0 13 13
10 68 -2 37 -4 83 -5 103 0 20 -8 46 -17 58 -23 28 -79 35 -120 17z m113 -130
c10 -26 -23 -85 -51 -92 -41 -10 -75 10 -75 45 0 33 8 41 54 52 49 11 66 10
72 -5z"/>
<path d="M3665 800 c-47 -24 -45 -24 -45 -5 0 8 -7 15 -15 15 -13 0 -15 -29
-15 -205 0 -176 2 -205 15 -205 12 0 15 18 15 102 l0 101 24 -22 c55 -52 151
-28 182 44 18 45 18 79 -2 122 -31 65 -95 86 -159 53z m88 -21 c33 -15 52 -53
51 -100 -2 -52 -26 -87 -68 -94 -101 -19 -155 112 -74 180 32 27 54 31 91 14z"/>
<path d="M3968 802 c-30 -16 -38 -17 -38 -6 0 8 -7 14 -15 14 -13 0 -15 -29
-15 -205 0 -176 2 -205 15 -205 12 0 15 17 15 95 l0 94 35 -21 c88 -51 183 23
172 135 -8 92 -91 140 -169 99z m93 -22 c10 -6 26 -24 34 -40 54 -105 -55
-211 -136 -131 -24 24 -29 38 -29 76 0 38 5 52 29 76 31 30 67 37 102 19z"/>
<path d="M4260 807 c-13 -7 -35 -28 -48 -47 -51 -74 -8 -190 75 -206 52 -10
125 28 108 56 -4 7 -16 3 -32 -10 -28 -22 -64 -26 -94 -10 -19 10 -49 59 -49
80 0 6 35 10 95 10 94 0 95 0 95 24 0 42 -18 75 -52 96 -38 23 -63 25 -98 7z
m95 -42 c14 -13 25 -33 25 -45 0 -18 -6 -20 -80 -20 -92 0 -101 11 -51 61 36
36 73 37 106 4z"/>
<path d="M4539 800 c-23 -17 -28 -18 -33 -5 -3 8 -11 15 -18 15 -10 0 -12 -28
-10 -125 3 -101 6 -125 18 -125 11 0 14 18 14 90 0 83 2 93 25 115 13 14 35
25 49 25 42 0 56 -33 56 -137 0 -76 3 -93 15 -93 24 0 22 200 -2 229 -26 31
-81 36 -114 11z"/>
<path d="M510 803 c0 -5 14 -61 32 -125 26 -94 37 -118 51 -118 10 0 19 6 22
13 2 6 16 52 30 101 14 48 28 86 31 84 2 -3 17 -47 32 -99 23 -75 32 -94 47
-94 15 0 25 21 53 118 18 66 31 121 28 124 -17 17 -34 -16 -55 -101 -12 -53
-27 -94 -32 -90 -5 3 -9 10 -9 17 0 6 -11 48 -25 94 -17 56 -31 83 -41 83 -8
0 -17 -6 -19 -12 -2 -7 -16 -53 -31 -103 l-28 -90 -17 60 c-10 33 -23 79 -29
103 -6 25 -17 42 -25 42 -8 0 -15 -3 -15 -7z"/>
<path d="M2650 685 c0 -108 2 -125 16 -125 11 0 14 5 10 16 -3 9 -6 65 -6 125
0 66 -4 109 -10 109 -6 0 -10 -48 -10 -125z"/>
</g>
</svg>
