<?xml version="1.0" encoding="UTF-8"?>
<svg version="1.1" xmlns="http://www.w3.org/2000/svg" width="128" height="128">
<path d="M0 0 C0.76316528 0.00359528 1.52633057 0.00719055 2.31262207 0.01089478 C3.51253029 0.01067574 3.51253029 0.01067574 4.73667908 0.01045227 C7.39344958 0.01115161 10.05015086 0.01894498 12.70690918 0.02676392 C14.54393984 0.02862802 16.38097099 0.03005196 18.21800232 0.03105164 C23.06284955 0.03487742 27.90766701 0.04470821 32.75250244 0.05575562 C37.69237871 0.06596845 42.63225978 0.07054898 47.57214355 0.07559204 C57.27202856 0.08633043 66.97188362 0.10392771 76.67175293 0.12442017 C76.67175293 9.36442017 76.67175293 18.60442017 76.67175293 28.12442017 C74.36175293 28.45442017 72.05175293 28.78442017 69.67175293 29.12442017 C69.67175293 21.53442017 69.67175293 13.94442017 69.67175293 6.12442017 C55.15175293 6.45442017 40.63175293 6.78442017 25.67175293 7.12442017 C30.62175293 8.77442017 35.57175293 10.42442017 40.67175293 12.12442017 C41.00175293 23.34442017 41.33175293 34.56442017 41.67175293 46.12442017 C46.12675293 41.17442017 46.12675293 41.17442017 50.67175293 36.12442017 C55.01171551 34.5970761 58.3585751 33.66101189 62.79675293 32.99942017 C63.84218262 32.80606079 64.8876123 32.61270142 65.96472168 32.41348267 C74.59273568 30.88640054 81.34343187 30.50468727 89.48425293 33.87442017 C90.15134277 34.12707642 90.81843262 34.37973267 91.5057373 34.64004517 C94.31446192 35.77373825 96.32298624 36.64474909 98.12878418 39.12832642 C99.86112691 45.49686694 96.33867712 51.53248234 93.67175293 57.12442017 C98.95175293 58.44442017 104.23175293 59.76442017 109.67175293 61.12442017 C110.16675293 63.10442017 110.16675293 63.10442017 110.67175293 65.12442017 C112.65175293 65.61942017 112.65175293 65.61942017 114.67175293 66.12442017 C114.67175293 68.76442017 114.67175293 71.40442017 114.67175293 74.12442017 C116.98175293 74.12442017 119.29175293 74.12442017 121.67175293 74.12442017 C121.70062805 77.77023704 121.71850878 81.4160248 121.73425293 85.06192017 C121.74263184 86.10283813 121.75101074 87.1437561 121.75964355 88.21621704 C121.76286621 89.20557251 121.76608887 90.19492798 121.76940918 91.21426392 C121.774646 92.13070679 121.77988281 93.04714966 121.78527832 93.99136353 C121.67175293 96.12442017 121.67175293 96.12442017 120.67175293 97.12442017 C118.89104047 97.2116824 117.10692153 97.23141058 115.32409668 97.22207642 C114.24450684 97.21885376 113.16491699 97.2156311 112.0526123 97.21231079 C110.91630371 97.20393188 109.77999512 97.19555298 108.60925293 97.18692017 C107.46907715 97.18240845 106.32890137 97.17789673 105.1541748 97.17324829 C102.32664942 97.16141764 99.49922653 97.14493426 96.67175293 97.12442017 C96.87284668 95.89078735 97.07394043 94.65715454 97.28112793 93.38613892 C97.70123313 90.00369617 97.69346155 87.94754098 95.92175293 84.93692017 C95.36487793 83.95272095 95.36487793 83.95272095 94.79675293 82.94863892 C94.42550293 82.34664673 94.05425293 81.74465454 93.67175293 81.12442017 C90.67175293 76.19584874 90.67175293 76.19584874 90.67175293 74.12442017 C92.32175293 74.12442017 93.97175293 74.12442017 95.67175293 74.12442017 C95.67175293 72.14442017 95.67175293 70.16442017 95.67175293 68.12442017 C93.69175293 68.12442017 91.71175293 68.12442017 89.67175293 68.12442017 C88.28559771 70.83646299 87.65117169 72.13499567 87.67175293 75.12442017 C89.19892761 78.13158154 90.98642759 80.75240232 92.97253418 83.47598267 C94.78111764 86.29487827 95.34655121 87.81736888 95.67175293 91.12442017 C94.91491699 94.23062134 94.91491699 94.23062134 93.68737793 97.66738892 C93.02608887 99.52460571 93.02608887 99.52460571 92.35144043 101.41934204 C92.11650879 102.05799194 91.88157715 102.69664185 91.63952637 103.35464478 C90.92222964 105.31062025 90.22941138 107.27407134 89.53894043 109.23965454 C86.06070472 118.86511897 86.06070472 118.86511897 82.67175293 121.12442017 C79.84095701 121.47826966 78.30345204 121.51650927 75.85925293 119.99942017 C74.08511879 117.19815574 74.38884502 115.44114316 74.67175293 112.12442017 C75.94904857 107.99543419 77.63710987 104.02272776 79.2713623 100.02481079 C81.73625026 94.16615918 81.73625026 94.16615918 80.67175293 88.12442017 C79.39119656 86.01542775 78.03004883 83.95409954 76.60925293 81.93692017 C72.67175293 76.32477166 72.67175293 76.32477166 72.67175293 74.12442017 C72.01175293 74.12442017 71.35175293 74.12442017 70.67175293 74.12442017 C70.54220215 74.94619751 70.54220215 74.94619751 70.41003418 75.78457642 C67.74383398 90.82781607 61.75108457 110.04508853 50.67175293 121.12442017 C48.04675293 121.24942017 48.04675293 121.24942017 45.67175293 121.12442017 C44.76327002 111.52226056 45.07511868 104.97902752 50.2635498 96.5350647 C53.90613651 90.33414478 55.74952075 83.83800173 57.67175293 76.93692017 C60.92487783 65.29663011 64.91167734 54.22704327 69.67175293 43.12442017 C60.65689009 44.2112197 55.46063875 46.16272756 49.76940918 53.35879517 C49.07718262 54.27145142 48.38495605 55.18410767 47.67175293 56.12442017 C47.17995544 56.54891449 46.68815796 56.97340881 46.18145752 57.4107666 C42.1067736 61.17401319 41.21914456 64.27410842 40.91467285 69.77822876 C40.8805333 72.44751066 40.87730945 75.1046664 40.90222168 77.77285767 C40.89350027 79.19537253 40.88200701 80.61787285 40.86787415 82.04034424 C40.83759868 85.76541098 40.84189105 89.4896146 40.85449219 93.2147522 C40.86395881 97.75775941 40.83550217 102.30065675 40.80943012 106.84357643 C40.78941443 110.37346581 40.776173 113.90291287 40.78361511 117.43286133 C40.78303604 118.69152008 40.78245697 119.95017883 40.78186035 121.24697876 C40.7844133 122.36059784 40.78696625 123.47421692 40.78959656 124.62158203 C40.67175293 127.12442017 40.67175293 127.12442017 39.67175293 128.12442017 C30.07960744 127.82230535 21.28202975 124.8899717 12.17175293 122.12442017 C10.59646669 121.6548824 9.02094728 121.18612616 7.44519043 120.71817017 C-3.94211625 117.31748558 -3.94211625 117.31748558 -6.32824707 116.12442017 C-6.35157684 101.1475571 -6.36922663 86.17069544 -6.38005924 71.19381809 C-6.38522203 64.24025936 -6.39226441 57.2867119 -6.40368652 50.3331604 C-6.41469401 43.62884808 -6.42052328 36.92454991 -6.42312431 30.2202282 C-6.42497909 27.65604403 -6.42860071 25.09186055 -6.43397713 22.52768135 C-6.44118366 18.94996858 -6.44223818 15.37230498 -6.44177246 11.79458618 C-6.44536774 10.72284653 -6.44896301 9.65110687 -6.45266724 8.54689026 C-6.45129257 7.57788788 -6.44991791 6.6088855 -6.44850159 5.61051941 C-6.44942338 4.76339166 -6.45034517 3.9162639 -6.4512949 3.04346561 C-6.19175186 -1.00434974 -3.40161102 0.00676383 0 0 Z M28.67175293 59.12442017 C27.68175293 59.61942017 27.68175293 59.61942017 26.67175293 60.12442017 C26.67175293 67.05442017 26.67175293 73.98442017 26.67175293 81.12442017 C27.99175293 81.12442017 29.31175293 81.12442017 30.67175293 81.12442017 C32.92030007 78.87587303 31.90423594 73.70641173 31.92175293 70.68692017 C31.94237793 69.80197876 31.96300293 68.91703735 31.98425293 68.00527954 C31.98940918 67.15901001 31.99456543 66.31274048 31.99987793 65.44082642 C32.00922363 64.6616687 32.01856934 63.88251099 32.02819824 63.07974243 C31.91057129 62.43448608 31.79294434 61.78922974 31.67175293 61.12442017 C30.68175293 60.46442017 29.69175293 59.80442017 28.67175293 59.12442017 Z M101.67175293 71.12442017 C101.67175293 72.11442017 101.67175293 73.10442017 101.67175293 74.12442017 C103.98175293 74.12442017 106.29175293 74.12442017 108.67175293 74.12442017 C108.67175293 73.13442017 108.67175293 72.14442017 108.67175293 71.12442017 C106.36175293 71.12442017 104.05175293 71.12442017 101.67175293 71.12442017 Z " fill="#FFFEFE" transform="translate(6.3282470703125,-0.124420166015625)"/>
<path d="M0 0 C2.87029869 1.79393668 4.49131638 2.98263276 6 6 C6.4973766 10.973766 6.54511419 13.06308498 4 17.4375 C0.79314279 20.17669053 -0.88823275 21.01265832 -5.00390625 21.23828125 C-8.44405138 20.82761813 -10.45378542 19.2430938 -13 17 C-15.36158878 13.23251556 -15.21908771 10.42049143 -14.58984375 6.12890625 C-14 4 -14 4 -12 1.4375 C-7.90729054 -0.52358995 -4.45995475 -0.82412207 0 0 Z " fill="#FFFEFE" transform="translate(105,12)"/>
<path d="M0 0 C0.66 0 1.32 0 2 0 C6.56382106 5.869364 5.66521484 12.97986044 5 20 C4.19450224 23.01880241 3.21644093 25.77077034 1.97265625 28.6328125 C0.76066306 31.36781227 0.76066306 31.36781227 0 36 C-4.62 36 -9.24 36 -14 36 C-13 31 -13 31 -11 29 C-8.8359375 28.8046875 -8.8359375 28.8046875 -6.375 28.875 C-5.14910156 28.90207031 -5.14910156 28.90207031 -3.8984375 28.9296875 C-2.95871094 28.96449219 -2.95871094 28.96449219 -2 29 C-2.01047363 28.3702124 -2.02094727 27.7404248 -2.03173828 27.09155273 C-2.0736023 24.20690994 -2.09942201 21.32233134 -2.125 18.4375 C-2.14175781 17.44685547 -2.15851563 16.45621094 -2.17578125 15.43554688 C-2.21274359 9.87271509 -1.87082551 5.25156925 0 0 Z " fill="#FFFEFE" transform="translate(78,81)"/>
</svg>
